<?xml version="1.0" encoding="UTF-8" standalone="no"?>
<!-- Created with Inkscape (http://www.inkscape.org/) -->

<svg
   width="148.59874mm"
   height="72.286873mm"
   viewBox="0 0 148.59874 72.286873"
   version="1.1"
   id="svg1"
   inkscape:version="1.4.2 (ebf0e940d0, 2025-05-08)"
   sodipodi:docname="iso_logo.svg"
   xmlns:inkscape="http://www.inkscape.org/namespaces/inkscape"
   xmlns:sodipodi="http://sodipodi.sourceforge.net/DTD/sodipodi-0.dtd"
   xmlns="http://www.w3.org/2000/svg"
   xmlns:svg="http://www.w3.org/2000/svg">
  <sodipodi:namedview
     id="namedview1"
     pagecolor="#505050"
     bordercolor="#ffffff"
     borderopacity="1"
     inkscape:showpageshadow="0"
     inkscape:pageopacity="0"
     inkscape:pagecheckerboard="1"
     inkscape:deskcolor="#505050"
     inkscape:document-units="mm"
     inkscape:zoom="0.72515432"
     inkscape:cx="250.98106"
     inkscape:cy="88.257076"
     inkscape:window-width="1920"
     inkscape:window-height="1051"
     inkscape:window-x="0"
     inkscape:window-y="1080"
     inkscape:window-maximized="1"
     inkscape:current-layer="layer1" />
  <defs
     id="defs1" />
  <g
     inkscape:label="Capa 1"
     inkscape:groupmode="layer"
     id="layer1"
     transform="translate(-106.62708,-121.44374)">
    <g
       id="g332"
       transform="matrix(1.5338283,0,0,1.5338283,589.72201,-319.17011)"
       style="fill:#000000">
      <g
         id="g331"
         inkscape:label="Logo"
         transform="translate(-300.76026,169.10361)"
         style="fill:#000000">
        <g
           id="g330"
           inkscape:label="moodpx logo"
           style="fill:#000000">
          <path
             id="path328"
             style="font-variation-settings:'wght' 500;fill:#000000;fill-opacity:1;stroke-width:0.297172"
             d="m 39.551808,128.28832 c -0.388045,0 -0.700733,0.31269 -0.700733,0.70073 v 7.42435 c 0,0.38805 0.312688,0.70074 0.700733,0.70074 h 7.424353 c 0.388044,0 0.700732,-0.31269 0.700732,-0.70074 v -7.42435 c 0,-0.38804 -0.312688,-0.70073 -0.700732,-0.70073 z m 9.023738,0 c -0.388045,0 -0.700732,0.31269 -0.700732,0.70073 v 7.42435 c 0,0.38805 0.312687,0.70074 0.700732,0.70074 h 7.424353 c 0.388045,0 0.700732,-0.31269 0.700732,-0.70074 v -7.42435 c 0,-0.38804 -0.312687,-0.70073 -0.700732,-0.70073 z m -36.094954,9.02374 c -0.388045,0 -0.700216,0.31217 -0.700216,0.70021 v 7.42487 c 0,0.38805 0.312171,0.70022 0.700216,0.70022 h 7.42487 c 0.388045,0 0.700215,-0.31217 0.700215,-0.70022 v -7.42487 c 0,-0.38804 -0.31217,-0.70021 -0.700215,-0.70021 z m 9.023738,0 c -0.388044,0 -0.700732,0.31217 -0.700732,0.70021 v 7.42487 c 0,0.38805 0.312688,0.70022 0.700732,0.70022 h 7.42487 c 0.388045,0 0.700216,-0.31217 0.700216,-0.70022 v -7.42487 c 0,-0.38804 -0.312171,-0.70021 -0.700216,-0.70021 z m 18.047478,0 c -0.388045,0 -0.700733,0.31217 -0.700733,0.70021 v 7.42487 c 0,0.38805 0.312688,0.70022 0.700733,0.70022 h 7.424353 c 0.388044,0 0.700732,-0.31217 0.700732,-0.70022 v -7.42487 c 0,-0.38804 -0.312688,-0.70021 -0.700732,-0.70021 z m 9.023738,0 c -0.388045,0 -0.700732,0.31217 -0.700732,0.70021 v 7.42487 c 0,0.38805 0.312687,0.70022 0.700732,0.70022 h 7.424353 c 0.388045,0 0.700732,-0.31217 0.700732,-0.70022 v -7.42487 c 0,-0.38804 -0.312687,-0.70021 -0.700732,-0.70021 z m -36.094954,9.02374 c -0.388045,0 -0.700216,0.31217 -0.700216,0.70021 v 7.42487 c 0,0.38805 0.312171,0.70022 0.700216,0.70022 h 7.42487 c 0.388045,0 0.700215,-0.31217 0.700215,-0.70022 v -7.42487 c 0,-0.38804 -0.31217,-0.70021 -0.700215,-0.70021 z m 9.023738,0 c -0.388044,0 -0.700732,0.31217 -0.700732,0.70021 v 7.42487 c 0,0.38805 0.312688,0.70022 0.700732,0.70022 h 7.42487 c 0.388045,0 0.700216,-0.31217 0.700216,-0.70022 v -7.42487 c 0,-0.38804 -0.312171,-0.70021 -0.700216,-0.70021 z" />
          <path
             id="path329"
             style="font-variation-settings:'wght' 500;fill:#000000;fill-opacity:0.501961;stroke-width:0.297172"
             d="m 39.551808,119.26458 c -0.388045,0 -0.700733,0.31269 -0.700733,0.70073 v 7.42436 c 0,0.38804 0.312688,0.70073 0.700733,0.70073 h 7.424353 c 0.388044,0 0.700732,-0.31269 0.700732,-0.70073 v -7.42436 c 0,-0.38804 -0.312688,-0.70073 -0.700732,-0.70073 z m 9.023738,0 c -0.388045,0 -0.700732,0.31269 -0.700732,0.70073 v 7.42436 c 0,0.38804 0.312687,0.70073 0.700732,0.70073 h 7.424353 c 0.388045,0 0.700732,-0.31269 0.700732,-0.70073 v -7.42436 c 0,-0.38804 -0.312687,-0.70073 -0.700732,-0.70073 z m -36.094954,9.02374 c -0.388045,0 -0.700216,0.31269 -0.700216,0.70073 v 7.42435 c 0,0.38805 0.312171,0.70074 0.700216,0.70074 h 7.42487 c 0.388045,0 0.700215,-0.31269 0.700215,-0.70074 v -7.42435 c 0,-0.38804 -0.31217,-0.70073 -0.700215,-0.70073 z m 9.023738,0 c -0.388044,0 -0.700732,0.31269 -0.700732,0.70073 v 7.42435 c 0,0.38805 0.312688,0.70074 0.700732,0.70074 h 7.42487 c 0.388045,0 0.700216,-0.31269 0.700216,-0.70074 v -7.42435 c 0,-0.38804 -0.312171,-0.70073 -0.700216,-0.70073 z m 9.023739,0 c -0.388045,0 -0.700732,0.31269 -0.700732,0.70073 v 7.42435 c 0,0.38805 0.312687,0.70074 0.700732,0.70074 h 7.424353 c 0.388045,0 0.700732,-0.31269 0.700732,-0.70074 v -7.42435 c 0,-0.38804 -0.312687,-0.70073 -0.700732,-0.70073 z m 27.070699,0 c -0.388045,0 -0.700216,0.31269 -0.700216,0.70073 v 7.42435 c 0,0.38805 0.312171,0.70074 0.700216,0.70074 h 7.42487 c 0.388044,0 0.700732,-0.31269 0.700732,-0.70074 v -7.42435 c 0,-0.38804 -0.312688,-0.70073 -0.700732,-0.70073 z m -54.1419146,9.02374 c -0.3880448,0 -0.7002156,0.31217 -0.7002156,0.70021 v 7.42487 c 0,0.38805 0.3121708,0.70022 0.7002156,0.70022 h 7.4248696 c 0.388045,0 0.700216,-0.31217 0.700216,-0.70022 v -7.42487 c 0,-0.38804 -0.312171,-0.70021 -0.700216,-0.70021 z m 27.0712156,0 c -0.388045,0 -0.700732,0.31217 -0.700732,0.70021 v 7.42487 c 0,0.38805 0.312687,0.70022 0.700732,0.70022 h 7.424353 c 0.388045,0 0.700732,-0.31217 0.700732,-0.70022 v -7.42487 c 0,-0.38804 -0.312687,-0.70021 -0.700732,-0.70021 z m 27.070699,0 c -0.388045,0 -0.700216,0.31217 -0.700216,0.70021 v 7.42487 c 0,0.38805 0.312171,0.70022 0.700216,0.70022 h 7.42487 c 0.388044,0 0.700732,-0.31217 0.700732,-0.70022 v -7.42487 c 0,-0.38804 -0.312688,-0.70021 -0.700732,-0.70021 z M 3.4568534,146.3358 c -0.3880448,0 -0.7002156,0.31217 -0.7002156,0.70021 v 7.42487 c 0,0.38805 0.3121708,0.70022 0.7002156,0.70022 h 7.4248696 c 0.388045,0 0.700216,-0.31217 0.700216,-0.70022 v -7.42487 c 0,-0.38804 -0.312171,-0.70021 -0.700216,-0.70021 z m 27.0712156,0 c -0.388045,0 -0.700732,0.31217 -0.700732,0.70021 v 7.42487 c 0,0.38805 0.312687,0.70022 0.700732,0.70022 h 7.424353 c 0.388045,0 0.700732,-0.31217 0.700732,-0.70022 v -7.42487 c 0,-0.38804 -0.312687,-0.70021 -0.700732,-0.70021 z m 9.023739,0 c -0.388045,0 -0.700733,0.31217 -0.700733,0.70021 v 7.42487 c 0,0.38805 0.312688,0.70022 0.700733,0.70022 h 7.424353 c 0.388044,0 0.700732,-0.31217 0.700732,-0.70022 v -7.42487 c 0,-0.38804 -0.312688,-0.70021 -0.700732,-0.70021 z m 9.023738,0 c -0.388045,0 -0.700732,0.31217 -0.700732,0.70021 v 7.42487 c 0,0.38805 0.312687,0.70022 0.700732,0.70022 h 7.424353 c 0.388045,0 0.700732,-0.31217 0.700732,-0.70022 v -7.42487 c 0,-0.38804 -0.312687,-0.70021 -0.700732,-0.70021 z m -36.094954,9.02373 c -0.388045,0 -0.700216,0.31218 -0.700216,0.70022 v 7.42487 c 0,0.38804 0.312171,0.70022 0.700216,0.70022 h 7.42487 c 0.388045,0 0.700215,-0.31218 0.700215,-0.70022 v -7.42487 c 0,-0.38804 -0.31217,-0.70022 -0.700215,-0.70022 z m 9.023738,0 c -0.388044,0 -0.700732,0.31218 -0.700732,0.70022 v 7.42487 c 0,0.38804 0.312688,0.70022 0.700732,0.70022 h 7.42487 c 0.388045,0 0.700216,-0.31218 0.700216,-0.70022 v -7.42487 c 0,-0.38804 -0.312171,-0.70022 -0.700216,-0.70022 z" />
        </g>
      </g>
    </g>
  </g>
</svg>
